<?xml version="1.0" encoding="UTF-8"?>
<svg id="Layer_1" xmlns="http://www.w3.org/2000/svg" version="1.1" viewBox="0 0 2000 639.3">
  <!-- Generator: Adobe Illustrator 29.7.1, SVG Export Plug-In . SVG Version: 2.1.1 Build 8)  -->
  <defs>
    <style>
      .st0 {
        fill: #fff;
      }

      .st1 {
        fill: #2980b9;
      }

      .st2 {
        fill: #164765;
      }
    </style>
  </defs>
  <path class="st2" d="M801.34,353.33c.79-.34,1.57-.69,2.34-1.05,13.75-6.44,24.25-15.71,31.52-27.8,7.26-12.09,10.9-26.56,10.9-43.4s-3.57-31.35-10.71-43.78c-7.15-12.42-17.51-22.04-31.09-28.85-13.58-6.82-29.95-10.22-49.1-10.22h-100.06v253.61h53.62v-89.9h39.14l48.04,89.9h59.2l-53.8-98.51ZM708.76,242.07h36.16c10.32,0,18.89,1.5,25.7,4.52,6.81,3.01,11.89,7.41,15.23,13.19,3.35,5.78,5.02,12.87,5.02,21.3s-1.67,15.31-5.02,20.92c-3.34,5.62-8.4,9.83-15.17,12.63-6.77,2.81-15.27,4.22-25.51,4.22h-36.41v-76.78Z"/>
  <path class="st2" d="M1053.77,370.24v-14.49c0-16.18-2.27-30.32-6.81-42.42-4.54-12.09-10.88-22.14-19.01-30.15-8.13-8.01-17.63-14.01-28.48-18.02-10.86-4-22.56-6-35.11-6-18.66,0-34.9,4.13-48.73,12.38-13.83,8.26-24.54,19.77-32.13,34.55-7.6,14.78-11.4,31.95-11.4,51.52s3.8,37.41,11.4,52.07c7.59,14.65,18.43,25.96,32.5,33.93,14.08,7.97,30.9,11.95,50.47,11.95,15.68,0,29.53-2.42,41.54-7.24,12.02-4.83,21.84-11.6,29.48-20.31,7.63-8.71,12.69-18.93,15.17-30.65l-48.8-3.22c-1.81,4.79-4.45,8.83-7.92,12.13-3.47,3.31-7.64,5.78-12.51,7.43-4.87,1.66-10.24,2.48-16.1,2.48-8.83,0-16.47-1.86-22.91-5.57-6.44-3.72-11.41-9-14.92-15.85-3.51-6.86-5.26-14.99-5.26-24.4v-.12h129.53ZM929.56,318.78c3.47-6.15,8.28-11.06,14.43-14.73,6.15-3.68,13.23-5.51,21.24-5.51s14.42,1.67,20.25,5.01c5.82,3.34,10.38,7.95,13.68,13.81,3.3,5.86,4.95,12.59,4.95,20.18h-79.82c.32-6.83,2.08-13.09,5.27-18.76Z"/>
  <path class="st2" d="M1140.95,198.23v253.61h-52.75v-253.61h52.75Z"/>
  <path class="st2" d="M1209.55,237.11c-7.85,0-14.55-2.62-20.12-7.86-5.57-5.24-8.36-11.54-8.36-18.88s2.79-13.52,8.36-18.76c5.57-5.24,12.28-7.86,20.12-7.86s14.55,2.62,20.12,7.86c5.57,5.24,8.36,11.5,8.36,18.76s-2.79,13.64-8.36,18.88c-5.57,5.24-12.28,7.86-20.12,7.86ZM1183.05,451.84v-190.21h52.75v190.21h-52.75Z"/>
  <path class="st2" d="M1332.14,455.43c-12.14,0-22.95-2.13-32.45-6.38-9.49-4.25-16.99-10.57-22.48-18.95-5.49-8.38-8.24-18.84-8.24-31.39,0-10.57,1.94-19.44,5.82-26.62,3.88-7.18,9.16-12.96,15.85-17.34,6.69-4.37,14.3-7.68,22.85-9.91,8.54-2.23,17.52-3.8,26.93-4.71,11.06-1.16,19.98-2.25,26.75-3.28,6.77-1.03,11.68-2.58,14.74-4.64,3.05-2.06,4.58-5.12,4.58-9.16v-.74c0-7.84-2.46-13.91-7.37-18.2-4.91-4.29-11.87-6.44-20.87-6.44-9.49,0-17.05,2.09-22.66,6.25-5.62,4.17-9.33,9.39-11.15,15.67l-48.79-3.96c2.48-11.56,7.35-21.57,14.61-30.03,7.26-8.46,16.65-14.98,28.17-19.57,11.52-4.58,24.87-6.87,40.06-6.87,10.57,0,20.7,1.24,30.4,3.72,9.7,2.48,18.33,6.32,25.88,11.52,7.55,5.2,13.52,11.87,17.89,20,4.37,8.13,6.56,17.85,6.56,29.16v128.29h-50.03v-26.38h-1.49c-3.06,5.94-7.14,11.17-12.26,15.66-5.12,4.5-11.27,8.01-18.45,10.53-7.18,2.52-15.48,3.78-24.89,3.78ZM1347.25,419.03c7.76,0,14.61-1.55,20.56-4.64,5.94-3.1,10.61-7.29,13.99-12.57,3.38-5.28,5.08-11.27,5.08-17.96v-20.19c-1.65,1.07-3.9,2.04-6.75,2.91-2.85.87-6.05,1.65-9.6,2.35-3.55.7-7.1,1.32-10.65,1.86-3.55.54-6.77,1.01-9.66,1.42-6.19.91-11.6,2.35-16.22,4.33-4.63,1.98-8.22,4.64-10.77,7.99-2.56,3.34-3.84,7.49-3.84,12.45,0,7.18,2.62,12.65,7.86,16.41,5.24,3.76,11.91,5.63,20,5.63Z"/>
  <path class="st1" d="M1571.14,451.84h-89.9v-253.61h90.65c25.51,0,47.47,5.06,65.88,15.17,18.41,10.11,32.59,24.62,42.54,43.53,9.95,18.91,14.92,41.53,14.92,67.86s-4.97,49.12-14.92,68.11c-9.95,18.99-24.19,33.56-42.72,43.71-18.53,10.15-40.68,15.23-66.44,15.23ZM1534.85,405.9h34.06c15.85,0,29.2-2.83,40.06-8.48,10.85-5.65,19.03-14.45,24.52-26.38,5.49-11.93,8.23-27.35,8.23-46.25s-2.74-34.05-8.23-45.94c-5.49-11.89-13.64-20.64-24.46-26.25-10.82-5.61-24.15-8.42-40-8.42h-34.18v161.73Z"/>
  <path class="st1" d="M1734.85,451.84v-253.61h101.55c18.66,0,34.22,2.77,46.68,8.3,12.46,5.53,21.84,13.19,28.11,22.97,6.27,9.78,9.41,21.03,9.41,33.74,0,9.91-1.98,18.6-5.94,26.07-3.96,7.47-9.39,13.58-16.28,18.33-6.89,4.75-14.76,8.11-23.59,10.09v2.48c9.66.41,18.72,3.14,27.18,8.17,8.46,5.04,15.33,12.07,20.62,21.11,5.28,9.04,7.93,19.79,7.93,32.26,0,13.46-3.32,25.45-9.97,35.97-6.65,10.53-16.45,18.84-29.41,24.95-12.96,6.11-28.94,9.16-47.92,9.16h-108.36ZM1788.47,304.35h39.75c7.35,0,13.89-1.3,19.63-3.9,5.74-2.6,10.28-6.29,13.62-11.08,3.34-4.79,5.02-10.53,5.02-17.21,0-9.16-3.24-16.55-9.72-22.17-6.48-5.61-15.66-8.42-27.55-8.42h-40.74v62.78ZM1788.47,408h43.72c14.94,0,25.84-2.87,32.69-8.61,6.85-5.74,10.28-13.39,10.28-22.97,0-7.02-1.69-13.21-5.08-18.58-3.39-5.37-8.19-9.58-14.43-12.63-6.23-3.05-13.64-4.58-22.23-4.58h-44.95v67.37Z"/>
  <path class="st2" d="M508.81,186.81l-192.31,132.8c-13.91,9.6-32.62,9.6-46.53,0L77.68,186.81,269.96,54.04c13.92-9.6,32.63-9.6,46.56,0l192.3,132.77Z"/>
  <path class="st2" d="M517,207.35v62.37l-200.48,138.44c-13.92,9.62-32.63,9.62-46.56,0l-200.47-138.44v-62.37l188.24,130c21.24,14.65,49.77,14.65,71.01,0l188.26-130Z"/>
  <path class="st2" d="M517,295.91v62.37l-200.48,138.43c-13.92,9.6-32.63,9.6-46.56,0l-200.47-138.43v-62.37l188.23,129.98c.66.46,1.33.9,2.01,1.33,2.03,1.29,4.13,2.45,6.28,3.47.71.35,1.43.67,2.15,1,.73.31,1.45.62,2.19.9,1.47.58,2.95,1.09,4.44,1.55,11.99,3.66,24.89,3.66,36.89,0,1.49-.46,2.99-.97,4.44-1.55.74-.28,1.47-.59,2.2-.9,1.44-.63,2.87-1.32,4.27-2.06,1.41-.74,2.79-1.55,4.15-2.41.67-.43,1.35-.88,2.02-1.33l188.24-129.98Z"/>
  <path class="st0" d="M70.98,385.48h0s186.75,128.95,186.75,128.95l-186.75-128.95ZM318.32,431.69c1.45-.62,2.87-1.32,4.27-2.06-1.4.74-2.83,1.43-4.27,2.06ZM328.76,514.42l186.76-128.93h0s-186.76,128.93-186.76,128.93Z"/>
  <path class="st2" d="M515.52,385.48h0c-5.99,43.59-29.99,83.08-66.73,108.44l-132.27,91.35c-13.92,9.6-32.63,9.6-46.56,0l-132.26-91.35c-36.74-25.36-60.74-64.84-66.73-108.42h0s186.75,128.93,186.75,128.93c21.24,14.68,49.79,14.68,71.04,0l186.76-128.95Z"/>
</svg>